<?xml version="1.0" encoding="utf-8"?>
<!-- Generator: Adobe Illustrator 22.1.0, SVG Export Plug-In . SVG Version: 6.00 Build 0)  -->
<svg version="1.1" id="Smart_Cube_Logo" xmlns="http://www.w3.org/2000/svg" xmlns:xlink="http://www.w3.org/1999/xlink" x="0px"
	 y="0px" viewBox="0 0 224.8 251.1" style="enable-background:new 0 0 224.8 251.1;" xml:space="preserve">
<style type="text/css">
	.st0{fill:#fff;}
</style>
<g id="Graphic_element">
	<path class="st0" d="M212,53.3L125.2,3.1c-3.5-2-8.1-3.1-12.8-3.1c-4.8,0-9.3,1.1-12.8,3.1L12.8,53.3C5.5,57.5,0,67,0,75.4v100.2
		c0,8.4,5.5,18,12.8,22.2l86.8,50.1c3.5,2,8.1,3.1,12.8,3.1c4.7,0,9.3-1.1,12.8-3.1l86.8-50.1c7.3-4.2,12.8-13.7,12.8-22.2V75.4
		C224.8,67,219.3,57.5,212,53.3z M105.9,14c1.6-0.9,4-1.5,6.5-1.5c2.5,0,4.9,0.5,6.5,1.5l29.8,17.2L69,77c-8.7,5-19.5,5-28.2,0
		L18.6,64.4L105.9,14z M12.5,75.4l21.8,12.4c8.9,5,14.3,14.5,14.3,24.7v35.4l-36.1-20.5V75.4z M106.1,237.2l-87-50.3
		c-3.3-1.9-6.5-7.4-6.5-11.3v-33.8l79.3,45.5c8.8,5.1,14.3,14.5,14.3,24.6V237.2z M163.6,211.3l-44.9,25.9v-25.3
		c0-10.2,5.4-19.5,14.2-24.6l30.7-17.7V211.3z M163.6,155.1l-51.2,29.6l-51.2-29.5V96l51.1-29.5L163.6,96V155.1z M155.7,77L125,59.2
		l36.3-20.7l44.9,25.9L184,77.1C175.2,82.1,164.5,82,155.7,77z M212.2,175.7c0,3.9-3.2,9.4-6.5,11.3L176.1,204v-91.5
		c0-10.2,5.5-19.6,14.3-24.7l21.8-12.4V175.7z"/>
</g>
</svg>
